<mxfile host="app.diagrams.net" modified="2021-12-03T08:41:29.360Z" agent="5.0 (Windows NT 10.0; Win64; x64) AppleWebKit/537.36 (KHTML, like Gecko) Chrome/96.0.4664.55 Safari/537.36 Edg/96.0.1054.41" etag="WG3AHW0HnprfcZe2kK3R" version="15.8.8" type="github">
  <diagram id="O3CKo3qllo84HiHy7ixs" name="Page-1">
    <mxGraphModel dx="1038" dy="583" grid="1" gridSize="10" guides="1" tooltips="1" connect="1" arrows="1" fold="1" page="1" pageScale="1" pageWidth="827" pageHeight="1169" math="0" shadow="0">
      <root>
        <mxCell id="0" />
        <mxCell id="1" parent="0" />
        <mxCell id="-5FvPEtVm43KxJYhnyYV-1" value="PropObj" style="swimlane;fontStyle=1;align=center;verticalAlign=top;childLayout=stackLayout;horizontal=1;startSize=26;horizontalStack=0;resizeParent=1;resizeParentMax=0;resizeLast=0;collapsible=1;marginBottom=0;" vertex="1" parent="1">
          <mxGeometry x="290" y="140" width="220" height="98" as="geometry" />
        </mxCell>
        <mxCell id="-5FvPEtVm43KxJYhnyYV-2" value="+ prop_map: map&lt;key, value&gt;&#xa;+ persist_oplog: map&lt;key, value&gt;&#xa;+ sync_oplog: list&lt;(key, value)&gt;" style="text;strokeColor=none;fillColor=none;align=left;verticalAlign=top;spacingLeft=4;spacingRight=4;overflow=hidden;rotatable=0;points=[[0,0.5],[1,0.5]];portConstraint=eastwest;fontSize=14;" vertex="1" parent="-5FvPEtVm43KxJYhnyYV-1">
          <mxGeometry y="26" width="220" height="64" as="geometry" />
        </mxCell>
        <mxCell id="-5FvPEtVm43KxJYhnyYV-3" value="" style="line;strokeWidth=1;fillColor=none;align=left;verticalAlign=middle;spacingTop=-1;spacingLeft=3;spacingRight=3;rotatable=0;labelPosition=right;points=[];portConstraint=eastwest;" vertex="1" parent="-5FvPEtVm43KxJYhnyYV-1">
          <mxGeometry y="90" width="220" height="8" as="geometry" />
        </mxCell>
      </root>
    </mxGraphModel>
  </diagram>
</mxfile>
